<?xml version="1.0" standalone="no"?>
<!DOCTYPE svg PUBLIC "-//W3C//DTD SVG 20010904//EN"
 "http://www.w3.org/TR/2001/REC-SVG-20010904/DTD/svg10.dtd">
<svg version="1.0" xmlns="http://www.w3.org/2000/svg"
 width="626.000000pt" height="417.000000pt" viewBox="0 0 626.000000 417.000000"
 preserveAspectRatio="xMidYMid meet">

<g transform="translate(0.000000,417.000000) scale(0.100000,-0.100000)"
fill="#000000" stroke="none">
<path d="M0 2085 l0 -2085 3130 0 3130 0 0 2085 0 2085 -3130 0 -3130 0 0
-2085z m2420 1395 c-18 -11 -24 -6 -16 16 5 14 9 15 19 5 9 -9 9 -14 -3 -21z
m3588 -27 c6 -6 8 -14 3 -17 -5 -3 -12 -17 -15 -32 -15 -59 -65 -83 -132 -63
-38 12 -44 17 -39 34 3 11 7 25 8 30 5 22 52 59 91 70 42 13 49 11 84 -22z
m-4042 -238 c16 -12 17 -16 5 -24 -9 -6 -24 -6 -38 0 -35 13 -41 12 -59 -15
-22 -35 -7 -58 41 -61 31 -2 43 3 61 24 29 34 39 23 20 -23 -13 -32 -19 -36
-51 -36 -85 0 -128 83 -69 129 31 25 63 27 90 6z m2232 -80 c54 -13 142 -49
142 -59 0 -9 -48 0 -153 30 -65 19 -122 34 -125 33 -4 0 53 -29 126 -64 l133
-64 -3 -50 -3 -49 -35 14 c-19 8 -69 33 -110 55 -41 22 -67 34 -57 26 9 -8 17
-20 17 -26 0 -7 5 -9 12 -5 6 4 8 3 5 -3 -4 -6 0 -24 8 -39 8 -16 15 -33 15
-39 0 -5 25 -28 56 -50 70 -50 74 -55 61 -85 -5 -14 -11 -30 -13 -37 -4 -20
-38 -62 -51 -63 -7 0 -28 9 -48 20 -34 19 -54 26 -43 14 3 -3 -5 -16 -19 -30
-20 -20 -36 -28 -73 -33 -3 -1 15 -18 39 -39 l45 -38 -47 -13 c-56 -16 -140
-11 -185 11 -19 10 -29 12 -25 5 15 -25 -78 56 -104 91 -30 39 -58 92 -55 105
1 4 -2 7 -7 7 -14 0 -31 58 -31 105 0 87 130 214 271 265 66 24 169 25 257 5z
m1142 -525 c0 -37 -21 -64 -53 -66 -25 -2 -23 62 4 105 19 32 21 32 34 15 8
-11 15 -35 15 -54z m-3419 -111 l146 -98 13 42 c7 23 19 55 27 71 15 29 16 29
30 10 12 -16 15 -17 23 -4 5 8 10 19 10 24 0 5 2 7 5 4 3 -2 -7 -38 -21 -79
-78 -227 -91 -488 -34 -700 30 -116 32 -130 5 -50 -40 118 -57 246 -53 413 2
80 6 144 11 141 4 -2 7 2 7 9 0 7 3 24 7 37 4 17 3 22 -6 17 -6 -4 -9 -12 -6
-17 4 -5 -1 -9 -9 -9 -9 0 -16 -7 -16 -15 0 -8 -4 -15 -10 -15 -5 0 -10 -9
-10 -20 0 -17 -17 -9 -107 51 -221 148 -333 231 -327 241 5 8 11 6 18 -3 6 -8
17 -15 24 -17 8 -1 98 -59 200 -127 132 -89 189 -122 196 -114 8 7 7 13 -4 19
-8 4 -96 64 -194 132 -162 112 -206 148 -178 148 5 0 93 -56 195 -124 127 -84
187 -119 191 -110 3 8 -29 36 -87 75 -193 131 -287 201 -282 209 7 11 30 -3
236 -141z m-274 96 c0 -8 -4 -12 -9 -9 -5 3 -6 10 -3 15 9 13 12 11 12 -6z
m2894 -92 c-10 -36 -84 -163 -95 -163 -3 0 1 15 9 33 11 27 11 38 -1 72 -7 22
-10 41 -5 43 4 1 26 18 47 37 45 40 60 33 45 -22z m-2841 -71 c201 -129 332
-224 321 -235 -12 -12 -37 4 -283 175 -87 60 -158 113 -158 118 0 14 28 1 120
-58z m1144 22 c19 -50 -8 -112 -61 -141 -72 -38 -85 -95 -43 -179 36 -73 73
-97 140 -92 l45 3 21 60 c17 47 30 66 63 89 22 17 41 36 41 44 0 7 -16 42 -35
76 -56 100 -43 173 23 135 14 -8 37 -32 51 -55 14 -22 36 -56 48 -75 22 -33
30 -93 15 -115 -4 -6 -15 -13 -24 -17 -11 -4 -18 -17 -18 -31 0 -34 -53 -92
-104 -114 -22 -10 -47 -26 -55 -35 -20 -24 -114 -22 -171 4 -99 45 -140 112
-146 236 -3 70 0 91 16 121 17 32 19 33 14 10 -9 -41 8 -34 44 18 44 61 122
95 136 58z m-1064 -147 c188 -125 240 -165 240 -182 0 -10 -50 18 -137 76
-226 151 -334 230 -328 239 7 11 31 -4 225 -133z m-134 18 c130 -85 374 -254
374 -260 0 -11 -47 8 -99 39 -106 65 -365 247 -396 279 -41 43 -17 31 121 -58z
m2744 1 c0 -21 -26 -52 -58 -71 -14 -8 -14 -8 21 63 10 19 14 39 10 45 -4 7 1
6 10 -2 9 -7 17 -23 17 -35z m-2633 -148 c193 -130 221 -152 205 -162 -4 -3
-94 52 -198 122 -227 153 -295 203 -288 214 6 9 35 -8 281 -174z m2498 -474
c110 -73 216 -146 235 -163 32 -27 33 -30 11 -26 -43 8 -485 311 -475 326 7
12 -7 20 229 -137z m-2745 90 c0 -17 -64 -84 -81 -84 -17 0 -18 3 -8 23 19 36
51 67 71 67 10 0 18 -3 18 -6z m2500 -9 c8 5 289 -178 414 -268 63 -46 73 -78
13 -40 -194 121 -447 301 -446 316 0 9 2 9 6 -1 2 -6 8 -10 13 -7z m-2258 -22
c21 -19 25 -41 3 -23 -8 7 -22 9 -31 6 -15 -6 -15 -8 1 -26 10 -11 21 -18 24
-15 4 2 13 0 21 -5 13 -8 12 -11 -4 -23 -13 -10 -17 -21 -13 -38 8 -33 -31
-103 -61 -107 -28 -4 -28 5 3 50 14 20 25 39 25 42 0 12 -41 -9 -66 -35 -28
-29 -57 -36 -83 -20 -11 7 -10 13 4 34 13 21 14 30 5 47 -11 20 -13 21 -30 5
-15 -13 -90 -20 -90 -7 0 8 59 88 76 103 25 22 45 26 128 28 52 1 74 -3 88
-16z m2363 -108 c208 -136 329 -223 331 -240 3 -17 9 -20 -106 53 -139 89
-370 253 -370 263 0 5 -3 8 -7 8 -17 -3 -24 2 -18 11 8 12 -5 19 170 -95z m24
-89 c241 -161 279 -190 264 -199 -12 -7 -416 261 -449 298 -12 13 -25 21 -30
17 -4 -4 -4 -2 -1 5 4 6 1 14 -5 16 -7 3 -9 6 -4 6 5 1 106 -64 225 -143z
m-2729 87 c0 -5 -4 -15 -10 -23 -11 -18 -25 -7 -17 15 6 15 27 21 27 8z m2653
-107 c246 -163 314 -212 314 -229 0 -18 -37 4 -252 151 -193 132 -255 179
-248 186 9 9 1 14 186 -108z m-1691 83 c10 -5 18 -16 18 -24 0 -20 -43 -29
-70 -15 -31 17 -62 6 -83 -29 -14 -24 -15 -34 -5 -55 9 -22 17 -26 47 -24 20
0 43 -2 52 -6 11 -5 24 3 43 29 48 63 74 39 36 -34 -19 -38 -21 -39 -74 -40
-32 0 -61 5 -68 12 -7 7 -21 16 -31 20 -9 3 -22 18 -27 32 -19 50 -12 76 31
117 38 36 45 39 78 33 19 -4 44 -11 53 -16z m-602 -54 c-6 -15 -13 -26 -16
-23 -2 3 0 18 6 33 6 15 13 26 16 23 2 -3 0 -18 -6 -33z m1131 -6 c-6 -16 -10
-18 -10 -7 -1 22 12 55 16 42 2 -6 -1 -22 -6 -35z m1199 -120 c191 -128 269
-189 242 -189 -12 0 -296 187 -412 271 -41 30 -76 60 -78 67 -4 19 17 7 248
-149z m-2620 124 c6 -6 -39 -43 -51 -43 -12 0 -31 39 -24 50 5 9 63 3 75 -7z
m3625 -3 c3 -6 -5 -10 -19 -10 -13 0 -26 -6 -29 -12 -2 -7 -7 -10 -11 -7 -9 9
22 39 39 39 8 0 17 -4 20 -10z m-1090 -136 c218 -143 297 -202 290 -214 -9
-15 -465 289 -465 310 0 6 -3 9 -7 9 -17 -3 -24 2 -18 11 8 12 -7 21 200 -116z
m1106 88 c-11 -21 -45 -26 -60 -8 -9 10 -6 12 13 9 13 -3 27 0 30 6 12 19 28
13 17 -7z m-3547 -25 c-3 -8 -15 -20 -28 -27 -19 -10 -29 -9 -54 4 -48 25 -44
31 24 34 52 3 63 1 58 -11z m83 -24 c-7 -7 -28 -15 -47 -19 l-35 -6 29 19 c35
22 74 27 53 6z m543 -150 c0 -17 -46 -46 -60 -38 -12 8 -3 51 18 85 l16 25 12
-30 c7 -17 13 -36 14 -42z m2667 -35 c63 -41 90 -64 86 -74 -6 -16 -3 -18
-109 58 -45 31 -84 64 -88 73 -7 19 -11 21 111 -57z m-1017 42 c0 -5 10 -10
23 -10 25 -1 57 -22 57 -38 0 -26 -40 -34 -83 -17 -38 15 -42 15 -66 -3 -34
-25 -48 -64 -35 -99 9 -25 14 -28 51 -25 23 2 51 -1 62 -7 15 -8 23 -8 30 1
48 61 69 80 79 74 7 -4 12 -14 12 -21 0 -18 -37 -90 -54 -104 -19 -16 -123 -7
-144 13 -10 9 -24 16 -30 16 -36 0 -55 117 -26 158 31 45 124 91 124 62z m987
-93 c82 -52 105 -77 71 -77 -18 0 -198 132 -192 142 6 10 2 12 121 -65z m-45
-42 c86 -57 114 -86 85 -87 -14 0 -197 133 -197 143 0 16 10 11 112 -56z m11
-77 c49 -34 66 -58 38 -58 -17 0 -181 122 -175 131 6 10 37 -7 137 -73z m-56
-36 c73 -48 93 -72 62 -72 -16 0 -198 134 -193 142 6 10 29 -2 131 -70z m-47
-40 c102 -65 96 -60 83 -73 -9 -9 -36 5 -102 52 -50 35 -91 70 -91 77 0 15 -5
18 110 -56z m-29 -52 c49 -34 87 -66 83 -71 -3 -6 -12 -8 -18 -6 -24 10 -176
120 -176 129 0 17 24 6 111 -52z m-395 -59 c-4 -5 -1 -11 5 -13 14 -5 -6 -48
-21 -48 -14 0 -12 44 2 58 14 14 21 16 14 3z m-2850 -375 c6 -25 -19 -95 -39
-108 -7 -4 -24 -8 -39 -8 -16 0 -28 -4 -28 -10 0 -13 -68 22 -75 38 -2 7 4 23
15 34 11 12 20 27 20 33 0 17 61 44 102 44 31 1 39 -3 44 -23z"/>
<path d="M3771 2954 c-1 -21 19 -88 24 -82 2 2 -3 26 -10 53 -8 28 -14 41 -14
29z"/>
</g>
</svg>
