<?xml version="1.0" standalone="no"?>
<!DOCTYPE svg PUBLIC "-//W3C//DTD SVG 20010904//EN"
 "http://www.w3.org/TR/2001/REC-SVG-20010904/DTD/svg10.dtd">
<svg version="1.0" xmlns="http://www.w3.org/2000/svg"
 width="626.000000pt" height="376.000000pt" viewBox="0 0 626.000000 376.000000"
 preserveAspectRatio="xMidYMid meet">

<g transform="translate(0.000000,376.000000) scale(0.100000,-0.100000)"
fill="#000000" stroke="none">
<path d="M0 1880 l0 -1880 3130 0 3130 0 0 1880 0 1880 -3130 0 -3130 0 0
-1880z m5003 903 c-13 -2 -35 -2 -50 0 -16 2 -5 4 22 4 28 0 40 -2 28 -4z m98
-40 c13 -16 12 -17 -3 -4 -17 13 -22 21 -14 21 2 0 10 -8 17 -17z m-51 -9 c30
-12 46 -27 61 -56 l20 -40 -23 -34 c-13 -19 -26 -34 -29 -34 -3 0 -23 15 -45
34 -21 18 -54 37 -72 41 -57 12 -52 47 13 87 36 22 26 21 75 2z m1066 -51 c86
-44 128 -144 84 -200 -12 -15 -37 -33 -55 -40 -30 -10 -35 -10 -40 7 -8 26
-94 100 -116 100 -22 0 -34 33 -20 58 7 14 5 21 -10 30 -20 13 -37 16 -26 6 4
-4 -4 -16 -17 -28 -13 -12 -30 -39 -37 -61 l-13 -40 -7 30 c-4 17 -7 22 -8 11
0 -11 -4 -17 -7 -13 -12 12 7 57 39 93 64 73 150 90 233 47z m-4229 -34 c40
-15 82 -57 104 -104 26 -55 24 -78 -10 -114 -32 -34 -91 -53 -91 -30 0 19 -81
99 -101 99 -9 0 -24 9 -33 19 -14 15 -15 24 -7 40 18 33 14 40 -20 31 -36 -11
-61 -29 -54 -40 3 -5 1 -11 -5 -15 -5 -3 -10 -17 -10 -31 0 -13 -4 -24 -10
-24 -5 0 -10 10 -10 23 0 18 -2 19 -11 7 -8 -11 -9 -9 -4 10 12 45 54 99 92
119 42 22 125 27 170 10z m1006 -46 c-13 -2 -33 -2 -45 0 -13 2 -3 4 22 4 25
0 35 -2 23 -4z m97 -39 c0 -2 -9 0 -20 6 -11 6 -20 13 -20 16 0 2 9 0 20 -6
11 -6 20 -13 20 -16z m-25 -24 c45 -28 58 -67 37 -110 -22 -46 -38 -47 -80 -7
-21 20 -49 37 -66 39 -16 2 -34 11 -40 21 -9 15 -5 23 22 48 39 35 80 38 127
9z m1577 -137 c55 -32 91 -87 96 -147 5 -59 -10 -117 -35 -138 -11 -8 -14 -9
-10 -1 4 7 -12 1 -35 -12 -24 -14 -53 -25 -65 -25 l-23 0 20 33 c34 56 28 67
-37 68 -32 0 -77 3 -100 5 -33 4 -43 2 -43 -9 0 -8 -9 -17 -20 -20 -23 -6 -34
23 -33 90 1 101 104 190 206 179 27 -3 63 -13 79 -23z m-4222 -58 c69 -36 119
-131 105 -204 -8 -40 -35 -92 -45 -86 -4 2 -24 -5 -46 -15 -21 -11 -46 -20
-56 -20 -16 0 -16 3 4 41 26 51 22 54 -85 62 -73 5 -84 4 -98 -13 -12 -14 -19
-16 -28 -7 -8 8 -11 7 -12 -3 -1 -34 -18 28 -18 70 -2 144 152 241 279 175z
m3088 -72 c-10 -2 -26 -2 -35 0 -10 3 -2 5 17 5 19 0 27 -2 18 -5z m107 -85
c30 -35 32 -78 6 -102 -21 -19 -39 -14 -90 25 -13 11 -37 19 -53 19 -58 0 -43
68 21 93 44 18 81 7 116 -35z m-2722 -195 c-18 -2 -48 -2 -65 0 -18 2 -4 4 32
4 36 0 50 -2 33 -4z m62 -21 c-3 -3 -11 0 -18 7 -9 10 -8 11 6 5 10 -3 15 -9
12 -12z m492 2 c-3 -3 -12 -4 -19 -1 -8 3 -5 6 6 6 11 1 17 -2 13 -5z m-506
-29 c31 -17 69 -69 69 -95 -1 -8 -11 -28 -25 -44 l-23 -29 -50 41 c-31 26 -60
42 -76 42 -37 0 -43 26 -15 57 41 44 74 51 120 28z m544 -29 c18 -14 38 -38
44 -54 11 -26 10 -34 -4 -56 -10 -14 -24 -26 -32 -26 -19 0 -67 25 -82 44 -8
9 -26 16 -42 16 -15 0 -31 5 -34 10 -19 31 43 90 94 90 13 0 39 -11 56 -24z
m1043 -287 c65 -32 102 -95 102 -173 0 -44 -6 -71 -21 -95 -11 -18 -22 -31
-25 -28 -3 3 -26 -4 -51 -15 -51 -23 -61 -19 -45 17 14 29 16 65 5 66 -5 0
-50 2 -100 5 -79 3 -93 1 -93 -12 0 -16 -30 -16 -42 1 -4 6 -8 35 -8 66 0 142
147 231 278 168z m3184 -18 c32 -33 39 -46 36 -73 -2 -25 -9 -35 -30 -42 -22
-8 -34 -4 -74 22 -26 18 -55 32 -64 32 -34 0 -42 25 -19 54 45 58 98 60 151 7z
m-1602 -201 c62 -32 117 -124 102 -170 -15 -45 -112 -104 -112 -68 0 21 -81
95 -112 102 -31 7 -44 36 -29 64 11 21 6 32 -16 32 -8 0 -11 -4 -8 -10 3 -5
-3 -10 -14 -10 -22 0 -51 -45 -51 -80 0 -28 -20 -26 -21 3 0 21 -1 21 -9 2 -8
-18 -9 -18 -9 -2 -2 37 40 98 86 128 58 36 133 40 193 9z"/>
</g>
</svg>
