<?xml version="1.0" standalone="no"?>
<!DOCTYPE svg PUBLIC "-//W3C//DTD SVG 20010904//EN"
 "http://www.w3.org/TR/2001/REC-SVG-20010904/DTD/svg10.dtd">
<svg version="1.0" xmlns="http://www.w3.org/2000/svg"
 width="338.000000pt" height="338.000000pt" viewBox="0 0 338.000000 338.000000"
 preserveAspectRatio="xMidYMid meet">

<g transform="translate(0.000000,338.000000) scale(0.100000,-0.100000)"
fill="#000000" stroke="none">
<path d="M0 1690 l0 -1690 1690 0 1690 0 0 1690 0 1690 -1690 0 -1690 0 0
-1690z m1488 1431 c-4 -20 -54 -27 -74 -10 -20 16 -17 28 9 38 28 11 69 -7 65
-28z m792 -425 c0 -8 -23 -31 -51 -51 -64 -45 -79 -52 -79 -31 0 8 26 33 58
55 63 44 72 48 72 27z m48 -87 l23 -27 -79 -56 c-44 -31 -85 -56 -91 -56 -6 0
-11 15 -11 34 0 31 6 38 65 75 50 32 63 45 58 58 -6 19 -5 18 35 -28z m-877
-108 c-11 -7 -13 -27 -9 -88 3 -43 3 -71 -1 -63 -3 8 -15 17 -26 18 -11 2 -27
10 -35 17 -8 8 -26 19 -40 25 -14 6 -43 22 -65 35 -46 28 -44 28 70 49 100 17
125 19 106 7z m1060 -111 c48 -25 66 -58 50 -89 -10 -19 -16 -22 -36 -21 -3 1
-13 -6 -21 -15 -10 -9 -34 -15 -67 -15 -44 0 -56 4 -84 32 -39 38 -42 70 -8
103 32 32 108 34 166 5z m-1445 -141 c43 -11 84 -25 90 -30 13 -11 67 -149 61
-156 -3 -2 -15 21 -27 52 l-23 56 -26 -17 c-14 -9 -119 -111 -232 -228 -114
-116 -210 -208 -214 -204 -4 4 91 111 211 238 121 127 219 235 219 241 0 6
-34 21 -75 35 -118 40 -110 46 16 13z m1214 -26 c0 -4 21 -92 46 -196 25 -104
43 -191 40 -194 -10 -11 -44 34 -65 89 -18 44 -24 83 -26 159 -2 56 -7 105
-12 110 -5 5 -46 -17 -91 -48 -45 -31 -84 -54 -87 -51 -5 5 173 135 188 137 4
1 7 -2 7 -6z m-485 -77 c55 -25 110 -68 126 -98 7 -13 7 -27 -2 -47 -12 -26
-35 -42 -141 -93 -10 -4 -39 -8 -64 -8 -93 0 -187 85 -176 160 5 39 58 96 95
103 58 11 115 6 162 -17z m-115 -446 c0 -5 -4 -10 -10 -10 -5 0 -10 5 -10 10
0 6 5 10 10 10 6 0 10 -4 10 -10z m641 -43 c-1 -12 -15 -9 -19 4 -3 6 1 10 8
8 6 -3 11 -8 11 -12z m-1371 -121 c0 -11 -100 -63 -106 -55 -7 12 -10 11 46
37 44 21 60 26 60 18z m530 -140 c0 -2 -7 -6 -15 -10 -8 -3 -15 -1 -15 4 0 6
7 10 15 10 8 0 15 -2 15 -4z m97 -2 c-3 -3 -12 -4 -19 -1 -8 3 -5 6 6 6 11 1
17 -2 13 -5z m177 -3 c4 -5 -3 -7 -14 -4 -23 6 -26 13 -6 13 8 0 17 -4 20 -9z
m96 -1 c0 -5 -5 -10 -11 -10 -5 0 -7 5 -4 10 3 6 8 10 11 10 2 0 4 -4 4 -10z
m90 0 c0 -5 -2 -10 -4 -10 -3 0 -8 5 -11 10 -3 6 -1 10 4 10 6 0 11 -4 11 -10z
m-863 -20 c-14 -11 -28 -20 -32 -20 -10 0 38 39 49 40 5 0 -3 -9 -17 -20z
m1621 -117 c3 -18 -10 -26 -100 -61 -57 -23 -195 -80 -308 -127 -113 -48 -222
-94 -242 -102 -33 -14 -37 -20 -40 -57 -2 -33 -7 -41 -23 -41 -25 0 -65 68
-65 113 0 38 14 41 41 10 12 -14 17 -17 13 -7 -6 18 20 33 131 74 68 26 83 21
39 -14 -15 -12 -25 -21 -22 -21 9 0 423 198 478 229 62 35 94 36 98 4z m-478
-54 c0 -27 -49 -63 -105 -75 -5 -1 -19 -6 -30 -10 -11 -4 9 24 44 64 58 64 66
70 77 54 8 -9 14 -24 14 -33z m484 -27 c-8 -8 -199 -90 -249 -108 -54 -19 6
13 121 66 115 52 156 66 128 42z m-1644 -74 c0 -49 -5 -47 -13 5 -3 20 -2 37
4 37 5 0 9 -19 9 -42z m170 -122 l0 -54 -61 -46 c-34 -25 -64 -46 -68 -46 -5
0 -16 18 -26 40 l-18 41 23 17 c40 29 145 101 148 101 1 1 2 -23 2 -53z m631
-321 c142 -47 265 -85 274 -85 16 0 20 -18 7 -35 -4 -5 -23 -23 -42 -40 l-35
-30 28 31 c15 16 27 35 27 41 0 7 -121 51 -270 100 -237 77 -301 103 -258 103
6 0 127 -38 269 -85z"/>
<path d="M2331 1874 c0 -11 3 -14 6 -6 3 7 2 16 -1 19 -3 4 -6 -2 -5 -13z"/>
</g>
</svg>
